<svg width="60" height="59" viewBox="0 0 60 59" fill="none" xmlns="http://www.w3.org/2000/svg">
<path d="M1.13672 19.2345L15.0849 1.61011L23.2699 22.7412L17.0399 21.8232L13.4924 12.5464L7.31456 20.1525L1.13672 19.2345Z" fill="black"/>
<path d="M4.97797 44.9913L0 23.0442L21.5401 29.8398L16.9328 34.1514L7.50402 31.13L9.55231 40.7237L4.97797 44.9913Z" fill="black"/>
<path d="M27.5174 58.0945L7.30347 48.3519L26.0072 35.6484L26.4987 41.9533L18.2781 47.4835L27.0341 51.8448L27.5174 58.0945Z" fill="black"/>
<path d="M51.8499 48.4292L31.7239 58.3483L33.3493 35.7368L38.5881 39.2463L37.8303 49.1543L46.6605 44.9419L51.8499 48.4292Z" fill="black"/>
<path d="M59.3429 23.2925L54.6285 45.3002L37.9565 30.0081L43.9477 28.0535L51.2238 34.7884L53.4011 25.2223L59.3429 23.2925Z" fill="black"/>
<path d="M18.6763 0.154382L41.0977 0L29.8458 19.6562L26.6471 14.2087L31.6168 5.61565L21.8421 5.56052L18.6763 0.154382Z" fill="#D6AE3A"/>
<path d="M44.4503 1.87744L58.6566 19.2923L36.356 22.8541L38.5662 16.9325L48.3465 15.4162L42.251 7.74397L44.4503 1.87744Z" fill="black"/>
</svg>
