<svg width="118" height="121" viewBox="0 0 118 121" fill="none" xmlns="http://www.w3.org/2000/svg">
<g clip-path="url(#clip0_226_85)">
<path d="M31.2917 18.6188L44.7826 1.55835L52.6992 22.0132L46.6735 21.1246L43.2423 12.1447L37.267 19.5074L31.2917 18.6188Z" fill="black"/>
<path d="M35.0071 43.5517L30.1924 22.3069L51.0262 28.885L46.57 33.0587L37.4504 30.1339L39.4315 39.4207L35.0071 43.5517Z" fill="black"/>
<path d="M56.8077 56.2356L37.2566 46.8048L55.3471 34.5078L55.8225 40.6109L47.8714 45.9641L56.3403 50.1859L56.8077 56.2356Z" fill="black"/>
<path d="M80.3424 46.8795L60.8762 56.4812L62.4484 34.5933L67.5154 37.9904L66.7825 47.5814L75.3231 43.5037L80.3424 46.8795Z" fill="black"/>
<path d="M87.5897 22.5471L83.0299 43.8506L66.9045 29.0478L72.6992 27.1558L79.7368 33.6752L81.8428 24.4151L87.5897 22.5471Z" fill="black"/>
<path d="M48.2563 0.149442L69.9427 0L59.0597 19.0272L55.9658 13.754L60.7726 5.43595L51.3184 5.38258L48.2563 0.149442Z" fill="#D6AE3A"/>
<path d="M73.1852 1.81738L86.9257 18.675L65.3562 22.1228L67.494 16.3906L76.9536 14.9229L71.058 7.49618L73.1852 1.81738Z" fill="black"/>
<path d="M9.2789 110.051C8.18741 110.051 7.10389 109.944 6.02569 109.73C4.94748 109.517 3.98346 109.202 3.13099 108.788C2.27851 108.375 1.58804 107.865 1.05424 107.265C0.523107 106.664 0.254883 105.989 0.254883 105.239V100.548H1.4526C1.87485 103.328 2.72732 105.306 4.01002 106.483C5.29272 107.66 7.04547 108.247 9.26562 108.247C10.7714 108.247 11.9824 107.918 12.8959 107.265C13.8095 106.611 14.2636 105.639 14.2636 104.356C14.2636 103.206 13.8971 102.25 13.1668 101.487C12.4339 100.724 11.43 99.9579 10.1526 99.1814L5.24226 96.2139C3.43374 95.1438 2.15635 94.047 1.41011 92.9262C0.663858 91.8027 0.292062 90.5057 0.292062 89.0353C0.292062 86.9245 1.09673 85.2512 2.70608 84.021C4.31542 82.7908 6.49043 82.177 9.2311 82.177C10.3226 82.177 11.4061 82.2837 12.4843 82.4972C13.5625 82.7107 14.5265 83.0256 15.379 83.4393C16.2315 83.8529 16.922 84.3626 17.4558 84.963C17.9869 85.5635 18.2551 86.2413 18.2551 86.9885V91.6799H17.0574C16.6086 88.8992 15.7614 86.9218 14.5186 85.7449C13.2757 84.5681 11.6504 83.981 9.64273 83.981C8.21397 83.981 7.0853 84.3279 6.25142 85.0244C5.42019 85.7209 5.00325 86.6683 5.00325 87.8718C5.00325 88.4322 5.10416 88.9339 5.30334 89.3769C5.50252 89.8172 5.78136 90.2255 6.14254 90.5991C6.50105 90.9727 6.93393 91.3357 7.43851 91.6826C7.94309 92.0295 8.51672 92.3924 9.15408 92.766L14.0644 95.6935C15.873 96.7636 17.1981 97.8124 18.0373 98.8425C18.8765 99.8725 19.2935 101.121 19.2935 102.592C19.2935 104.892 18.4277 106.71 16.6989 108.046C14.9727 109.383 12.4976 110.051 9.2789 110.051Z" fill="black"/>
<path d="M37.4556 82.177C38.1461 82.177 38.7118 82.2704 39.1526 82.4572C39.5908 82.644 39.936 82.8842 40.191 83.1804C40.4433 83.4739 40.6159 83.8155 40.7088 84.2025C40.8018 84.5894 40.8496 84.9844 40.8496 85.3847V88.7951H39.6519C39.6519 87.0846 39.219 85.8543 38.3559 85.1045C37.4902 84.3573 36.2606 83.981 34.6645 83.981H28.2378V94.7301H38.6162V96.5341H28.2378V108.247H35.0629C36.5261 108.247 37.769 107.918 38.7941 107.265C39.8192 106.611 40.677 105.413 41.3675 103.675L42.4457 104.076L41.2878 107.243C40.9957 108.1 40.6159 108.78 40.1512 109.29C39.6864 109.797 38.9056 110.053 37.8168 110.053H23.0459V87.3915C23.0459 86.1879 22.8786 85.2192 22.5466 84.4827C22.2147 83.7488 21.4498 83.3805 20.2521 83.3805H19.8538V82.177H37.4556Z" fill="black"/>
<path d="M46.3975 87.2714C45.7574 85.7743 45.1413 84.7255 44.5411 84.1224C43.9436 83.522 43.2452 83.1671 42.4458 83.0603V82.2571C42.552 82.2571 42.8123 82.2437 43.2239 82.217C43.6355 82.1903 43.9356 82.177 44.1215 82.177C44.812 82.177 45.5237 82.2304 46.2567 82.3371C46.987 82.4439 47.6987 82.6707 48.3919 83.0203C49.0824 83.3672 49.741 83.8769 50.3677 84.5441C50.9918 85.2139 51.5442 86.1212 52.0249 87.2714L58.348 102.592L66.7931 82.177H68.7875L57.2937 110.051H55.6977L46.3975 87.2714Z" fill="black"/>
<path d="M87.9854 82.177C88.6759 82.177 89.2416 82.2704 89.6824 82.4572C90.1206 82.644 90.4659 82.8842 90.7208 83.1804C90.9731 83.4739 91.1457 83.8155 91.2387 84.2025C91.3316 84.5894 91.3794 84.9844 91.3794 85.3847V88.7951H90.1817C90.1817 87.0846 89.7488 85.8543 88.8857 85.1045C88.02 84.3573 86.7904 83.981 85.1943 83.981H78.7676V94.7301H89.146V96.5341H78.7676V108.247H85.5927C87.056 108.247 88.2988 107.918 89.3239 107.265C90.349 106.611 91.2068 105.413 91.8973 103.675L92.9755 104.076L91.8176 107.243C91.5255 108.1 91.1457 108.78 90.681 109.29C90.2162 109.797 89.4355 110.053 88.3466 110.053H73.5784V87.3915C73.5784 86.1879 73.4111 85.2192 73.0791 84.4827C72.7471 83.7488 71.9823 83.3805 70.7846 83.3805H70.3862V82.177H87.9854Z" fill="black"/>
<path d="M115.527 101.909V82.177H117.522V110.051H115.687L98.7621 88.7925V110.051H96.7677V86.9885C96.7677 86.4815 96.7145 86.0065 96.6083 85.5661C96.5021 85.1258 96.3082 84.7442 96.0294 84.424C95.7505 84.1037 95.3761 83.8502 94.9113 83.6607C94.4466 83.4739 93.8677 83.3805 93.1745 83.3805H92.9753V82.177H95.7691C97.2855 82.177 98.5151 82.3771 99.4605 82.7774C100.403 83.1777 101.184 83.7808 101.795 84.5814L115.527 101.909Z" fill="black"/>
<path d="M0.278809 73.2558V72.7755C0.278809 72.6394 0.36379 72.5513 0.501886 72.5513H1.23485C1.37029 72.5513 1.45528 72.6367 1.45528 72.7755V73.1865C1.45528 74.4727 2.59988 75.3987 4.47745 75.3987C6.27003 75.3987 7.15703 74.5581 7.15703 73.3573C7.15703 72.1404 6.23551 71.572 4.01536 70.646C1.96517 69.8214 0.446117 69.1889 0.446117 67.2141C0.446117 65.2767 1.88019 64.1772 4.20391 64.1772C6.73212 64.1772 8.26711 65.4822 8.26711 67.4383V67.7639C8.26711 67.8999 8.18212 67.988 8.04403 67.988H7.29247C7.15703 67.988 7.06939 67.9026 7.06939 67.7639V67.5077C7.06939 66.2214 6.0443 65.242 4.13221 65.242C2.52817 65.242 1.63852 65.9279 1.63852 67.1821C1.63852 68.4684 2.59456 68.8793 4.66069 69.6879C6.76133 70.5472 8.36537 71.3531 8.36537 73.3092C8.36537 75.1799 6.9313 76.4662 4.38715 76.4662C1.86691 76.4635 0.278809 75.1933 0.278809 73.2558Z" fill="#D6AE3A"/>
<path d="M22.9184 76.1379L22.2359 74.0457C22.22 74.011 22.2014 73.9763 22.1509 73.9763H17.0626C17.0122 73.9763 16.9936 74.011 16.9776 74.0457L16.3111 76.1379C16.2765 76.274 16.1916 76.3273 16.0721 76.3273H15.2515C15.0974 76.3273 15.0124 76.2233 15.0629 76.0711L18.8207 64.5081C18.8552 64.372 18.9402 64.3186 19.0597 64.3186H20.1512C20.2707 64.3186 20.3557 64.3693 20.3902 64.5081L24.1639 76.0711C24.2144 76.2259 24.1294 76.3273 23.9754 76.3273H23.1574C23.0379 76.3247 22.9529 76.274 22.9184 76.1379ZM17.4211 72.9809H21.8083C21.8588 72.9809 21.8933 72.9462 21.8774 72.8768L19.6572 65.8584C19.6413 65.773 19.5722 65.773 19.5537 65.8584L17.3521 72.8768C17.3335 72.9462 17.368 72.9809 17.4211 72.9809Z" fill="#D6AE3A"/>
<path d="M32.086 76.1379L28.8408 64.5748C28.8062 64.42 28.8753 64.3186 29.0293 64.3186H29.8658C29.9854 64.3186 30.0703 64.3693 30.1049 64.5081L32.6649 73.8082C32.6809 73.8776 32.7499 73.8776 32.7685 73.8082L35.1586 64.5081C35.1931 64.388 35.2941 64.3186 35.4136 64.3186H36.2342C36.3537 64.3186 36.4387 64.3693 36.4732 64.5081L38.9669 73.8242C38.9828 73.8936 39.0519 73.8936 39.0704 73.8242L41.6305 64.5081C41.665 64.372 41.75 64.3186 41.8695 64.3186H42.6556C42.8096 64.3186 42.8787 64.4227 42.8442 64.5748L39.652 76.1379C39.6175 76.274 39.5325 76.3273 39.413 76.3273H38.5924C38.4729 76.3273 38.3693 76.258 38.3375 76.1379L35.8783 66.5976C35.8624 66.5282 35.7933 66.5282 35.7747 66.5976L33.3501 76.1379C33.3156 76.258 33.2147 76.3273 33.0952 76.3273H32.3277C32.2055 76.3247 32.1205 76.274 32.086 76.1379Z" fill="#D6AE3A"/>
<path d="M55.5275 76.1379L54.845 74.0457C54.8291 74.011 54.8105 73.9763 54.7601 73.9763H49.6718C49.6213 73.9763 49.6027 74.011 49.5868 74.0457L48.9202 76.1379C48.8857 76.274 48.8007 76.3273 48.6812 76.3273H47.8606C47.7066 76.3273 47.6216 76.2233 47.672 76.0711L51.4298 64.5081C51.4643 64.372 51.5493 64.3186 51.6688 64.3186H52.7603C52.8798 64.3186 52.9648 64.3693 52.9993 64.5081L56.7731 76.0711C56.8235 76.2259 56.7385 76.3273 56.5845 76.3273H55.7639C55.647 76.3247 55.5621 76.274 55.5275 76.1379ZM50.0303 72.9809H54.4175C54.4679 72.9809 54.5024 72.9462 54.4865 72.8768L52.2664 65.8584C52.2504 65.773 52.1814 65.773 52.1628 65.8584L49.9612 72.8768C49.9453 72.9462 49.9772 72.9809 50.0303 72.9809Z" fill="#D6AE3A"/>
<path d="M62.8865 73.2558V72.7755C62.8865 72.6394 62.9715 72.5513 63.1096 72.5513H63.8425C63.978 72.5513 64.0629 72.6367 64.0629 72.7755V73.1865C64.0629 74.4727 65.2075 75.3987 67.0851 75.3987C68.8777 75.3987 69.7647 74.5581 69.7647 73.3573C69.7647 72.1404 68.8432 71.572 66.623 70.646C64.5728 69.8214 63.0538 69.1889 63.0538 67.2141C63.0538 65.2767 64.4879 64.1772 66.8116 64.1772C69.3398 64.1772 70.8748 65.4822 70.8748 67.4383V67.7639C70.8748 67.8999 70.7898 67.988 70.6517 67.988H69.9001C69.7647 67.988 69.6771 67.9026 69.6771 67.7639V67.5077C69.6771 66.2214 68.652 65.242 66.7399 65.242C65.1358 65.242 64.2462 65.9279 64.2462 67.1821C64.2462 68.4684 65.2022 68.8793 67.2684 69.6879C69.369 70.5472 70.973 71.3531 70.973 73.3092C70.973 75.1799 69.539 76.4662 66.9948 76.4662C64.4719 76.4635 62.8865 75.1933 62.8865 73.2558Z" fill="#D6AE3A"/>
<path d="M78.6428 76.1032V64.5401C78.6428 64.404 78.7278 64.3159 78.8659 64.3159H82.8441C85.0988 64.3159 86.5329 65.5862 86.5329 67.6277V73.0156C86.5329 75.0571 85.0988 76.3273 82.8441 76.3273H78.8659C78.7278 76.3247 78.6428 76.2393 78.6428 76.1032ZM79.9414 75.2625H82.8946C84.3791 75.2625 85.3192 74.3365 85.3192 72.8608V67.7985C85.3192 66.3067 84.3977 65.378 82.8946 65.378H79.9414C79.891 65.378 79.8565 65.4127 79.8565 65.4634V75.1745C79.8565 75.2279 79.891 75.2625 79.9414 75.2625Z" fill="#D6AE3A"/>
<path d="M101.83 65.378H95.6153C95.5648 65.378 95.5303 65.4127 95.5303 65.4634V69.6665C95.5303 69.7172 95.5648 69.7519 95.6153 69.7519H99.952C100.087 69.7519 100.175 69.8372 100.175 69.9733V70.5925C100.175 70.7286 100.09 70.8166 99.952 70.8166H95.6153C95.5648 70.8166 95.5303 70.8513 95.5303 70.902V75.1745C95.5303 75.2252 95.5648 75.2599 95.6153 75.2599H101.83C101.965 75.2599 102.053 75.3453 102.053 75.4814V76.1005C102.053 76.2366 101.968 76.3246 101.83 76.3246H94.5397C94.4043 76.3246 94.3167 76.2392 94.3167 76.1005V64.5374C94.3167 64.4013 94.4016 64.3132 94.5397 64.3132H101.83C101.965 64.3132 102.053 64.3986 102.053 64.5374V65.1538C102.05 65.2926 101.965 65.378 101.83 65.378Z" fill="#D6AE3A"/>
<path d="M117.28 65.378H111.066C111.016 65.378 110.981 65.4127 110.981 65.4634V69.6665C110.981 69.7172 111.016 69.7519 111.066 69.7519H115.403C115.538 69.7519 115.626 69.8372 115.626 69.9733V70.5925C115.626 70.7286 115.541 70.8166 115.403 70.8166H111.066C111.016 70.8166 110.981 70.8513 110.981 70.902V75.1745C110.981 75.2252 111.016 75.2599 111.066 75.2599H117.28C117.416 75.2599 117.503 75.3453 117.503 75.4814V76.1005C117.503 76.2366 117.418 76.3246 117.28 76.3246H109.99C109.855 76.3246 109.767 76.2392 109.767 76.1005V64.5374C109.767 64.4013 109.852 64.3132 109.99 64.3132H117.28C117.416 64.3132 117.503 64.3986 117.503 64.5374V65.1538C117.503 65.2926 117.416 65.378 117.28 65.378Z" fill="#D6AE3A"/>
<path d="M1.14991 120.031H0.589562L2.14314 116.157H0.900277C0.650643 116.157 0.459433 116.21 0.323993 116.319C0.188554 116.429 0.122161 116.592 0.122161 116.813H0V116.407C0 116.346 0.00796705 116.285 0.0212455 116.223C0.0345239 116.162 0.0637364 116.109 0.100916 116.063C0.140751 116.018 0.193865 115.981 0.262913 115.951C0.33196 115.922 0.419598 115.908 0.528481 115.908H2.70614V116.159L1.14991 120.031Z" fill="black"/>
<path d="M8.25123 117.221C8.17156 116.813 8.0255 116.514 7.81304 116.322C7.60059 116.13 7.32174 116.034 6.9765 116.034C6.77202 116.034 6.58081 116.069 6.40022 116.138C6.21963 116.207 6.06029 116.319 5.92485 116.474C5.78676 116.629 5.68053 116.834 5.60086 117.091C5.52119 117.347 5.48401 117.659 5.48401 118.035C5.48401 118.267 5.51322 118.497 5.56899 118.724C5.62476 118.948 5.7124 119.148 5.83456 119.324C5.95406 119.5 6.10809 119.642 6.29665 119.749C6.4852 119.858 6.71359 119.911 6.9765 119.911C7.28722 119.911 7.55544 119.837 7.77852 119.687C8.0016 119.538 8.20077 119.322 8.37605 119.036L8.50087 119.129C8.40261 119.324 8.29107 119.49 8.16891 119.62C8.04674 119.751 7.91396 119.858 7.77321 119.938C7.63246 120.018 7.47843 120.077 7.31643 120.109C7.15178 120.141 6.9765 120.159 6.79061 120.159C6.49582 120.159 6.23026 120.103 5.99124 119.994C5.75223 119.885 5.5504 119.733 5.38309 119.54C5.21578 119.348 5.08566 119.124 4.99802 118.865C4.90773 118.606 4.86523 118.329 4.86523 118.035C4.86523 117.723 4.91569 117.43 5.01661 117.157C5.11752 116.885 5.25562 116.645 5.4309 116.442C5.60617 116.239 5.808 116.077 6.04436 115.962C6.27806 115.844 6.52769 115.786 6.79326 115.786C7.1385 115.786 7.43328 115.834 7.68292 115.932C7.93255 116.031 8.11314 116.149 8.22467 116.285C8.30435 116.381 8.34949 116.514 8.36011 116.685C8.37339 116.856 8.3787 117.035 8.3787 117.221H8.25123Z" fill="black"/>
<path d="M9.1355 117.971C9.1355 117.667 9.18064 117.381 9.26828 117.115C9.35858 116.848 9.48605 116.616 9.65336 116.418C9.82066 116.221 10.0252 116.066 10.2615 115.954C10.5005 115.842 10.7661 115.786 11.0609 115.786C11.3556 115.786 11.6212 115.842 11.8602 115.954C12.0992 116.066 12.3011 116.221 12.4684 116.418C12.6357 116.616 12.7658 116.848 12.8535 117.115C12.9437 117.381 12.9862 117.667 12.9862 117.971C12.9862 118.278 12.9411 118.566 12.8535 118.831C12.7632 119.095 12.6357 119.327 12.4684 119.524C12.3011 119.722 12.0966 119.877 11.8602 119.989C11.6212 120.101 11.3556 120.157 11.0609 120.157C10.7661 120.157 10.5005 120.101 10.2615 119.989C10.0225 119.877 9.82066 119.722 9.65336 119.524C9.48605 119.327 9.35592 119.095 9.26828 118.831C9.17799 118.564 9.1355 118.278 9.1355 117.971ZM12.3675 117.971C12.3675 117.675 12.3383 117.408 12.2772 117.168C12.2161 116.928 12.1311 116.725 12.0196 116.557C11.908 116.389 11.7699 116.258 11.6079 116.17C11.4459 116.079 11.2627 116.036 11.0609 116.036C10.8564 116.036 10.6758 116.082 10.5138 116.17C10.3518 116.261 10.2164 116.389 10.1022 116.557C9.99063 116.725 9.90299 116.93 9.84457 117.168C9.78348 117.408 9.75427 117.675 9.75427 117.971C9.75427 118.267 9.78348 118.534 9.84457 118.774C9.90565 119.015 9.99063 119.217 10.1022 119.386C10.2137 119.554 10.3518 119.684 10.5138 119.773C10.6758 119.863 10.859 119.906 11.0609 119.906C11.2627 119.906 11.4459 119.861 11.6079 119.773C11.7699 119.682 11.9054 119.554 12.0196 119.386C12.1311 119.217 12.2161 119.012 12.2772 118.774C12.3383 118.534 12.3675 118.265 12.3675 117.971Z" fill="black"/>
<path d="M14.0166 116.658C14.0166 116.472 13.9901 116.319 13.9396 116.205C13.8865 116.09 13.7697 116.034 13.5811 116.034H13.4563V115.908H14.0166C14.1255 115.908 14.2158 115.919 14.2875 115.938C14.3592 115.956 14.4177 115.994 14.4628 116.05C14.5053 116.106 14.5372 116.183 14.5531 116.282C14.569 116.381 14.577 116.506 14.577 116.661V118.441C14.577 118.662 14.5956 118.86 14.6328 119.031C14.6699 119.204 14.731 119.351 14.8187 119.471C14.9063 119.591 15.0178 119.685 15.1586 119.749C15.2967 119.813 15.4693 119.845 15.6791 119.845C15.9155 119.845 16.1146 119.813 16.2766 119.751C16.4386 119.69 16.5688 119.591 16.667 119.46C16.7653 119.33 16.837 119.164 16.8795 118.964C16.922 118.764 16.9406 118.526 16.9406 118.251V115.908H17.1902V118.251C17.1902 118.556 17.1663 118.823 17.1211 119.055C17.076 119.287 16.9937 119.479 16.8768 119.634C16.7573 119.789 16.598 119.903 16.3908 119.981C16.1863 120.058 15.9234 120.095 15.6047 120.095C15.302 120.095 15.0497 120.058 14.8452 119.981C14.6434 119.903 14.4787 119.789 14.3566 119.634C14.2344 119.479 14.1468 119.287 14.0963 119.055C14.0432 118.823 14.0193 118.556 14.0193 118.251V116.658H14.0166Z" fill="black"/>
<path d="M19.4503 118.126H19.0147V120.031H18.4544V116.658C18.4544 116.472 18.4278 116.319 18.3774 116.205C18.3243 116.09 18.2074 116.034 18.0189 116.034H17.894V115.908H19.5114C19.6441 115.908 19.7982 115.919 19.9788 115.943C20.1567 115.967 20.3267 116.018 20.4886 116.095C20.6506 116.175 20.7861 116.287 20.9003 116.437C21.0118 116.584 21.0676 116.784 21.0676 117.035C21.0676 117.213 21.0357 117.366 20.9746 117.491C20.9136 117.616 20.8339 117.718 20.7356 117.8C20.6374 117.881 20.5311 117.945 20.4116 117.99C20.2921 118.035 20.1806 118.07 20.0717 118.097L20.725 119.191C20.8047 119.324 20.8764 119.434 20.9454 119.522C21.0145 119.61 21.0809 119.682 21.1473 119.738C21.2136 119.794 21.28 119.834 21.3464 119.861C21.4128 119.885 21.4845 119.903 21.5642 119.911V120.037C21.5323 120.053 21.4792 120.069 21.4128 120.079C21.3438 120.093 21.2694 120.098 21.1924 120.098C21.0835 120.098 20.9853 120.085 20.8897 120.055C20.7967 120.026 20.7064 119.975 20.6188 119.906C20.5311 119.834 20.4435 119.741 20.3532 119.626C20.2629 119.508 20.17 119.364 20.069 119.194L19.4503 118.126ZM19.4821 117.907C19.5698 117.907 19.668 117.891 19.7769 117.857C19.8858 117.825 19.992 117.771 20.0903 117.704C20.1886 117.635 20.2735 117.547 20.3426 117.435C20.4116 117.325 20.4462 117.189 20.4462 117.032C20.4462 116.869 20.4116 116.73 20.3426 116.613C20.2735 116.496 20.1912 116.402 20.0903 116.333C19.992 116.263 19.8858 116.21 19.7769 116.178C19.668 116.146 19.5671 116.127 19.4821 116.127C19.4025 116.127 19.3201 116.133 19.2378 116.146C19.1528 116.159 19.0785 116.173 19.0174 116.189V117.843C19.0785 117.859 19.1528 117.875 19.2378 117.886C19.3201 117.902 19.4025 117.907 19.4821 117.907Z" fill="black"/>
<path d="M25.1705 115.908V116.159H23.771V120.034H23.2106V116.159H22.6529C22.4033 116.159 22.2121 116.218 22.0766 116.33C21.9412 116.442 21.8748 116.626 21.8748 116.877H21.75V116.407C21.75 116.346 21.758 116.285 21.7712 116.223C21.7845 116.162 21.8137 116.109 21.8509 116.063C21.8908 116.018 21.9439 115.981 22.0129 115.951C22.082 115.922 22.1696 115.908 22.2785 115.908H25.1705Z" fill="black"/>
<path d="M28.7027 118.126H28.2672V120.031H27.7068V116.658C27.7068 116.472 27.6803 116.319 27.6298 116.205C27.5767 116.09 27.4599 116.034 27.2713 116.034H27.1465V115.908H28.7638C28.8966 115.908 29.0506 115.919 29.2312 115.943C29.4091 115.967 29.5791 116.018 29.7411 116.095C29.9031 116.175 30.0385 116.287 30.1527 116.437C30.2643 116.584 30.32 116.784 30.32 117.035C30.32 117.213 30.2882 117.366 30.2271 117.491C30.166 117.616 30.0863 117.718 29.9881 117.8C29.8898 117.881 29.7836 117.945 29.6641 117.99C29.5446 118.035 29.433 118.07 29.3241 118.097L29.9774 119.191C30.0571 119.324 30.1288 119.434 30.1979 119.522C30.2669 119.61 30.3333 119.682 30.3997 119.738C30.4661 119.794 30.5325 119.834 30.5989 119.861C30.6653 119.885 30.737 119.903 30.8166 119.911V120.037C30.7848 120.053 30.7317 120.069 30.6653 120.079C30.5962 120.093 30.5219 120.098 30.4448 120.098C30.336 120.098 30.2377 120.085 30.1421 120.055C30.0491 120.026 29.9589 119.975 29.8712 119.906C29.7836 119.834 29.6959 119.741 29.6056 119.626C29.5154 119.508 29.4224 119.364 29.3215 119.194L28.7027 118.126ZM28.7346 117.907C28.8222 117.907 28.9205 117.891 29.0294 117.857C29.1382 117.825 29.2445 117.771 29.3427 117.704C29.441 117.635 29.526 117.547 29.595 117.435C29.6641 117.325 29.6986 117.189 29.6986 117.032C29.6986 116.869 29.6641 116.73 29.595 116.613C29.526 116.496 29.4437 116.402 29.3427 116.333C29.2445 116.263 29.1382 116.21 29.0294 116.178C28.9205 116.146 28.8196 116.127 28.7346 116.127C28.6549 116.127 28.5726 116.133 28.4903 116.146C28.4053 116.159 28.3309 116.173 28.2698 116.189V117.843C28.3309 117.859 28.4053 117.875 28.4903 117.886C28.5726 117.902 28.6549 117.907 28.7346 117.907Z" fill="black"/>
<path d="M31.1592 117.971C31.1592 117.667 31.2043 117.381 31.292 117.115C31.3823 116.848 31.5097 116.616 31.677 116.418C31.8443 116.221 32.0488 116.066 32.2852 115.954C32.5242 115.842 32.7898 115.786 33.0846 115.786C33.3793 115.786 33.6449 115.842 33.8839 115.954C34.1229 116.066 34.3248 116.221 34.4921 116.418C34.6594 116.616 34.7895 116.848 34.8771 117.115C34.9674 117.381 35.0099 117.667 35.0099 117.971C35.0099 118.278 34.9648 118.566 34.8771 118.831C34.7868 119.095 34.6594 119.327 34.4921 119.524C34.3248 119.722 34.1203 119.877 33.8839 119.989C33.6449 120.101 33.3793 120.157 33.0846 120.157C32.7898 120.157 32.5242 120.101 32.2852 119.989C32.0462 119.877 31.8443 119.722 31.677 119.524C31.5097 119.327 31.3796 119.095 31.292 118.831C31.2017 118.564 31.1592 118.278 31.1592 117.971ZM34.3911 117.971C34.3911 117.675 34.3619 117.408 34.3009 117.168C34.2398 116.928 34.1548 116.725 34.0433 116.557C33.9317 116.389 33.7936 116.258 33.6316 116.17C33.4696 116.079 33.2864 116.036 33.0846 116.036C32.8801 116.036 32.6995 116.082 32.5375 116.17C32.3755 116.261 32.24 116.389 32.1258 116.557C32.0117 116.725 31.9267 116.93 31.8682 117.168C31.8072 117.408 31.778 117.675 31.778 117.971C31.778 118.267 31.8072 118.534 31.8682 118.774C31.9293 119.015 32.0143 119.217 32.1258 119.386C32.2374 119.554 32.3755 119.684 32.5375 119.773C32.6995 119.863 32.8827 119.906 33.0846 119.906C33.2864 119.906 33.4696 119.861 33.6316 119.773C33.7936 119.682 33.9291 119.554 34.0433 119.386C34.1548 119.217 34.2398 119.012 34.3009 118.774C34.3619 118.534 34.3911 118.265 34.3911 117.971Z" fill="black"/>
<path d="M39.4023 120.031C39.3306 120.053 39.2483 120.063 39.1527 120.063C39.0809 120.063 39.0013 120.055 38.9083 120.039C38.8154 120.023 38.7198 119.986 38.6215 119.93C38.5233 119.874 38.4277 119.791 38.3347 119.685C38.2418 119.575 38.1621 119.434 38.0957 119.252L37.9417 118.847H36.1995L35.7029 120.034H35.4241L37.1662 115.911H37.3521L38.7198 119.255C38.7702 119.372 38.8154 119.471 38.8605 119.551C38.903 119.631 38.9535 119.698 39.0066 119.749C39.0597 119.799 39.1181 119.837 39.1819 119.861C39.2429 119.885 39.3173 119.903 39.4049 119.911V120.031H39.4023ZM36.2951 118.596H37.8195L37.0733 116.784L36.2951 118.596Z" fill="black"/>
<path d="M41.0888 115.908C41.5005 115.908 41.859 115.956 42.1644 116.053C42.4698 116.149 42.7247 116.285 42.9266 116.458C43.1284 116.634 43.2798 116.848 43.3807 117.099C43.4816 117.349 43.5321 117.632 43.5321 117.945C43.5321 118.249 43.4843 118.529 43.386 118.785C43.2877 119.041 43.1443 119.26 42.9531 119.444C42.7619 119.628 42.5256 119.773 42.2414 119.877C41.9572 119.981 41.6279 120.034 41.2508 120.034H40.0186V116.661C40.0186 116.474 39.992 116.322 39.9416 116.207C39.8885 116.093 39.7716 116.037 39.5831 116.037H39.4583V115.911H41.0888V115.908ZM40.6108 119.733C40.8551 119.786 41.0649 119.813 41.2402 119.813C41.4659 119.813 41.6784 119.77 41.8776 119.685C42.0768 119.599 42.2467 119.476 42.3901 119.316C42.5335 119.156 42.6477 118.961 42.7301 118.735C42.8124 118.508 42.8549 118.251 42.8549 117.969C42.8549 117.694 42.815 117.443 42.7354 117.216C42.6557 116.989 42.5415 116.794 42.3981 116.632C42.2547 116.469 42.0821 116.343 41.8829 116.258C41.6837 116.17 41.4659 116.127 41.2296 116.127C41.1393 116.127 41.041 116.135 40.9348 116.151C40.8286 116.167 40.7224 116.194 40.6108 116.226V119.733Z" fill="black"/>
<path d="M44.1667 120.907C44.3233 120.797 44.4455 120.677 44.5331 120.544C44.6208 120.41 44.6633 120.25 44.6633 120.063L44.4774 120.125C44.3818 120.125 44.3021 120.093 44.2357 120.026C44.1693 119.959 44.1375 119.879 44.1375 119.783C44.1375 119.674 44.172 119.586 44.2437 119.514C44.3154 119.444 44.403 119.407 44.5119 119.407C44.6367 119.407 44.735 119.444 44.8067 119.519C44.8784 119.594 44.9156 119.703 44.9156 119.845C44.9156 120.111 44.8571 120.338 44.7376 120.528C44.6208 120.717 44.4508 120.875 44.2304 121L44.1667 120.907Z" fill="black"/>
<path d="M50.7263 117.221C50.6467 116.813 50.5006 116.514 50.2881 116.322C50.0757 116.13 49.7968 116.034 49.4516 116.034C49.2471 116.034 49.0559 116.069 48.8753 116.138C48.6947 116.207 48.5354 116.319 48.4 116.474C48.2619 116.629 48.1556 116.834 48.076 117.091C47.9963 117.344 47.9591 117.659 47.9591 118.035C47.9591 118.267 47.9883 118.497 48.0441 118.724C48.0999 118.948 48.1875 119.148 48.3097 119.324C48.4292 119.5 48.5832 119.642 48.7717 119.749C48.9603 119.858 49.1887 119.911 49.4516 119.911C49.7623 119.911 50.0305 119.837 50.2536 119.687C50.4767 119.538 50.6759 119.322 50.8511 119.036L50.976 119.129C50.8777 119.324 50.7662 119.49 50.644 119.62C50.5218 119.751 50.3891 119.858 50.2483 119.938C50.1076 120.018 49.9535 120.077 49.7915 120.109C49.6269 120.141 49.4516 120.159 49.2657 120.159C48.9709 120.159 48.7054 120.103 48.4663 119.994C48.2273 119.885 48.0255 119.733 47.8582 119.54C47.6909 119.348 47.5608 119.124 47.4731 118.865C47.3828 118.606 47.3403 118.329 47.3403 118.035C47.3403 117.723 47.3908 117.43 47.4917 117.157C47.5926 116.885 47.7307 116.645 47.906 116.442C48.0813 116.239 48.2831 116.077 48.5195 115.962C48.7532 115.844 49.0028 115.786 49.2684 115.786C49.6136 115.786 49.9084 115.834 50.158 115.932C50.4076 116.031 50.5882 116.149 50.6998 116.285C50.7794 116.381 50.8246 116.514 50.8352 116.685C50.8485 116.856 50.8538 117.035 50.8538 117.221H50.7263Z" fill="black"/>
<path d="M51.8762 115.908H52.4366V119.282C52.4366 119.468 52.4631 119.62 52.5136 119.735C52.564 119.85 52.6835 119.906 52.8721 119.906H52.9969V120.031H52.4366C52.3277 120.031 52.2374 120.023 52.1657 120.002C52.094 119.983 52.0356 119.946 51.9904 119.89C51.9479 119.834 51.9161 119.759 51.9001 119.663C51.8842 119.567 51.8762 119.442 51.8762 119.282V115.908Z" fill="black"/>
<path d="M55.3949 119.156C55.4984 118.916 55.5834 118.716 55.6525 118.564C55.7215 118.409 55.7773 118.281 55.8198 118.177C55.8623 118.073 55.8994 117.984 55.9287 117.915C55.9579 117.843 55.9871 117.774 56.0163 117.707C56.0455 117.638 56.0774 117.563 56.1092 117.477C56.1411 117.395 56.1863 117.285 56.242 117.152C56.2978 117.018 56.3668 116.853 56.4518 116.656C56.5342 116.458 56.6377 116.21 56.7625 115.908H57.06L55.2754 120.095H55.1638L53.7218 116.64C53.6713 116.522 53.6262 116.423 53.581 116.343C53.5359 116.263 53.4881 116.197 53.435 116.146C53.3819 116.095 53.3234 116.058 53.2597 116.034C53.1986 116.01 53.1243 115.991 53.0366 115.983V115.858C53.0526 115.858 53.0844 115.855 53.1322 115.852C53.18 115.85 53.2172 115.847 53.2464 115.847C53.3208 115.847 53.4058 115.855 53.5014 115.871C53.597 115.887 53.6926 115.924 53.7908 115.978C53.8891 116.031 53.9847 116.111 54.0776 116.215C54.1706 116.319 54.2556 116.461 54.3299 116.64L55.3949 119.156Z" fill="black"/>
<path d="M57.8223 115.908H58.3826V119.282C58.3826 119.468 58.4092 119.62 58.4596 119.735C58.5101 119.85 58.6296 119.906 58.8181 119.906H58.943V120.031H58.3826C58.2737 120.031 58.1834 120.023 58.1117 120.002C58.04 119.983 57.9816 119.946 57.9365 119.89C57.894 119.834 57.8621 119.759 57.8462 119.663C57.8302 119.567 57.8223 119.442 57.8223 119.282V115.908Z" fill="black"/>
<path d="M60.3822 119.781H62.589V120.031H59.8218V116.658C59.8218 116.472 59.7953 116.319 59.7448 116.205C59.6917 116.09 59.5748 116.034 59.3863 116.034H59.2615V115.908H59.8218C59.9307 115.908 60.021 115.919 60.0927 115.938C60.1644 115.956 60.2228 115.994 60.268 116.05C60.3105 116.106 60.3423 116.183 60.3583 116.282C60.3742 116.381 60.3822 116.506 60.3822 116.661V119.781Z" fill="black"/>
<path d="M65.6566 119.781H67.8635V120.031H65.0962V116.658C65.0962 116.472 65.0697 116.319 65.0192 116.205C64.9661 116.09 64.8493 116.034 64.6607 116.034H64.5359V115.908H65.0962C65.2051 115.908 65.2954 115.919 65.3671 115.938C65.4388 115.956 65.4972 115.994 65.5424 116.05C65.5849 116.106 65.6168 116.183 65.6327 116.282C65.6486 116.381 65.6566 116.506 65.6566 116.661V119.781Z" fill="black"/>
<path d="M68.498 115.908H69.0584V119.282C69.0584 119.468 69.085 119.62 69.1354 119.735C69.1859 119.85 69.3054 119.906 69.4939 119.906H69.6187V120.031H69.0584C68.9495 120.031 68.8592 120.023 68.7875 120.002C68.7158 119.983 68.6574 119.946 68.6122 119.89C68.5697 119.834 68.5379 119.759 68.5219 119.663C68.506 119.567 68.498 119.442 68.498 119.282V115.908Z" fill="black"/>
<path d="M70.5243 116.658C70.5243 116.472 70.4845 116.319 70.4074 116.205C70.3278 116.09 70.1817 116.034 69.9666 116.034H69.9055V115.908H70.3092C70.511 115.908 70.6783 115.94 70.8084 116.007C70.9386 116.074 71.0528 116.165 71.1484 116.282L73.326 119.001V115.908H73.5757V120.095H73.4508L70.7739 116.752V120.031H70.5243V116.658Z" fill="black"/>
<path d="M76.9724 115.908C77.0812 115.908 77.1689 115.922 77.2379 115.951C77.307 115.981 77.3601 116.018 77.3999 116.063C77.4398 116.109 77.4663 116.162 77.4796 116.223C77.4929 116.285 77.5008 116.346 77.5008 116.407V116.877H77.376C77.376 116.626 77.3096 116.445 77.1742 116.33C77.0388 116.215 76.8475 116.159 76.5979 116.159H75.44V117.784H77.1184V118.035H75.44V119.786H76.5289C76.8104 119.786 77.0334 119.733 77.1981 119.631C77.3627 119.527 77.4902 119.351 77.5858 119.1L77.7106 119.132L77.4929 119.725C77.4583 119.821 77.4052 119.895 77.3282 119.951C77.2512 120.007 77.1503 120.037 77.0255 120.037H74.8797V116.664C74.8797 116.477 74.8531 116.325 74.8027 116.21C74.7496 116.095 74.6327 116.039 74.4442 116.039H74.3193V115.914H76.9724V115.908Z" fill="black"/>
<path d="M81.0648 118.983C81.0648 119.159 81.0355 119.316 80.9745 119.458C80.9134 119.599 80.8284 119.722 80.7169 119.823C80.6053 119.925 80.4699 120.002 80.3105 120.058C80.1512 120.112 79.9706 120.141 79.7741 120.141C79.6041 120.141 79.4342 120.122 79.2669 120.088C79.0996 120.053 78.9482 120.002 78.8127 119.935C78.6773 119.869 78.5684 119.789 78.4834 119.695C78.3985 119.602 78.356 119.495 78.356 119.38V118.711H78.4808C78.5498 119.132 78.6879 119.434 78.8924 119.615C79.0969 119.799 79.3731 119.89 79.7236 119.89C79.8299 119.89 79.9334 119.877 80.029 119.85C80.1246 119.823 80.2123 119.783 80.2866 119.727C80.361 119.674 80.4194 119.607 80.4646 119.527C80.5097 119.447 80.5336 119.356 80.5336 119.252C80.5336 119.068 80.4752 118.913 80.3637 118.783C80.2495 118.654 80.0795 118.521 79.8511 118.39L79.0863 117.934C78.8207 117.777 78.6348 117.616 78.5233 117.454C78.4144 117.291 78.3586 117.093 78.3586 116.861C78.3586 116.698 78.3878 116.552 78.4463 116.424C78.5047 116.295 78.587 116.183 78.6906 116.09C78.7968 115.997 78.9216 115.924 79.0703 115.874C79.2164 115.823 79.3811 115.799 79.5643 115.799C79.7183 115.799 79.875 115.815 80.0344 115.85C80.1937 115.882 80.3371 115.933 80.4672 115.997C80.5947 116.061 80.7009 116.141 80.7833 116.234C80.8656 116.327 80.9081 116.434 80.9081 116.549V117.216H80.7833C80.7142 116.794 80.5788 116.496 80.3822 116.317C80.1831 116.138 79.9095 116.047 79.5616 116.047C79.4713 116.047 79.3837 116.061 79.2961 116.09C79.2084 116.119 79.1341 116.162 79.0677 116.215C79.0013 116.269 78.9482 116.335 78.9083 116.416C78.8659 116.496 78.8473 116.581 78.8473 116.677C78.8473 116.768 78.8605 116.851 78.8898 116.92C78.919 116.992 78.9615 117.059 79.0199 117.12C79.0783 117.181 79.15 117.243 79.2376 117.304C79.3253 117.366 79.4235 117.427 79.5351 117.494L80.2999 117.95C80.4327 118.03 80.5469 118.105 80.6452 118.177C80.7434 118.249 80.8231 118.326 80.8842 118.409C80.9453 118.489 80.9931 118.577 81.0249 118.668C81.0488 118.761 81.0648 118.865 81.0648 118.983Z" fill="black"/>
<path d="M81.8349 120.907C81.9916 120.797 82.1137 120.677 82.2014 120.544C82.289 120.41 82.3315 120.25 82.3315 120.063L82.1456 120.125C82.05 120.125 81.9703 120.093 81.9039 120.026C81.8375 119.959 81.8057 119.879 81.8057 119.783C81.8057 119.674 81.8402 119.586 81.9119 119.514C81.9836 119.444 82.0712 119.407 82.1801 119.407C82.3049 119.407 82.4032 119.444 82.4749 119.519C82.5466 119.594 82.5838 119.703 82.5838 119.845C82.5838 120.111 82.5253 120.338 82.4058 120.528C82.289 120.717 82.119 120.875 81.8986 121L81.8349 120.907Z" fill="black"/>
<path d="M85.4174 116.658C85.4174 116.472 85.3775 116.319 85.3005 116.205C85.2208 116.09 85.0748 116.034 84.8597 116.034H84.7986V115.908H85.2022C85.4041 115.908 85.5714 115.94 85.7015 116.007C85.8316 116.074 85.9458 116.165 86.0414 116.282L88.2164 119.001V115.908H88.4661V120.095H88.3413L85.667 116.752V120.031H85.4174V116.658Z" fill="black"/>
<path d="M91.8654 115.908C91.9743 115.908 92.062 115.922 92.131 115.951C92.2001 115.981 92.2532 116.018 92.293 116.063C92.3328 116.109 92.3594 116.162 92.3727 116.223C92.3859 116.285 92.3939 116.346 92.3939 116.407V116.877H92.2691C92.2691 116.626 92.2027 116.445 92.0673 116.33C91.9318 116.215 91.7406 116.159 91.491 116.159H90.3331V117.784H92.0115V118.035H90.3331V119.786H91.4219C91.7034 119.786 91.9265 119.733 92.0912 119.631C92.2558 119.527 92.3833 119.351 92.4789 119.1L92.6037 119.132L92.3859 119.725C92.3514 119.821 92.2983 119.895 92.2213 119.951C92.1443 120.007 92.0434 120.037 91.9185 120.037H89.7728V116.664C89.7728 116.477 89.7462 116.325 89.6957 116.21C89.6426 116.095 89.5258 116.039 89.3372 116.039H89.2124V115.914H91.8654V115.908Z" fill="black"/>
<path d="M93.3951 116.64C93.3526 116.522 93.3128 116.423 93.2703 116.343C93.2278 116.263 93.1827 116.197 93.1296 116.146C93.0764 116.095 93.018 116.058 92.949 116.034C92.8799 116.01 92.8003 115.991 92.71 115.983V115.858C92.7259 115.858 92.7578 115.855 92.8056 115.852C92.8534 115.85 92.8905 115.847 92.9198 115.847C93.0074 115.847 93.0977 115.855 93.1959 115.868C93.2942 115.882 93.3898 115.916 93.4854 115.972C93.581 116.026 93.6713 116.106 93.759 116.213C93.8466 116.319 93.921 116.461 93.982 116.64L94.8159 119.052L95.4825 117.072L95.3338 116.64C95.2913 116.522 95.2515 116.423 95.209 116.343C95.1665 116.263 95.1213 116.197 95.0682 116.146C95.0151 116.095 94.9567 116.058 94.8876 116.034C94.8186 116.01 94.7389 115.991 94.6486 115.983V115.858C94.6645 115.858 94.6964 115.855 94.7442 115.852C94.792 115.85 94.8292 115.847 94.8584 115.847C94.946 115.847 95.0363 115.855 95.1346 115.868C95.2329 115.882 95.3285 115.916 95.4241 115.972C95.5197 116.026 95.61 116.106 95.6976 116.213C95.7852 116.319 95.8596 116.461 95.9207 116.64L96.7546 119.052L97.8168 115.908H98.0851L96.6616 120.095H96.5368L95.6153 117.464L94.7203 120.095H94.5955L93.3951 116.64Z" fill="black"/>
<path d="M101.827 115.908C102.239 115.908 102.597 115.956 102.902 116.053C103.208 116.149 103.463 116.285 103.665 116.458C103.866 116.634 104.018 116.848 104.119 117.099C104.22 117.349 104.27 117.632 104.27 117.945C104.27 118.249 104.222 118.529 104.124 118.785C104.026 119.041 103.882 119.26 103.691 119.444C103.5 119.628 103.264 119.773 102.979 119.877C102.695 119.981 102.366 120.034 101.989 120.034H100.757V116.661C100.757 116.474 100.73 116.322 100.68 116.207C100.627 116.093 100.51 116.037 100.321 116.037H100.196V115.911H101.827V115.908ZM101.346 119.733C101.591 119.786 101.8 119.813 101.976 119.813C102.201 119.813 102.414 119.77 102.613 119.685C102.812 119.599 102.982 119.476 103.126 119.316C103.269 119.156 103.383 118.961 103.465 118.735C103.548 118.508 103.59 118.251 103.59 117.969C103.59 117.694 103.55 117.443 103.471 117.216C103.391 116.989 103.277 116.794 103.133 116.632C102.99 116.469 102.817 116.343 102.618 116.258C102.419 116.17 102.201 116.127 101.965 116.127C101.875 116.127 101.776 116.135 101.67 116.151C101.564 116.167 101.458 116.194 101.346 116.226V119.733Z" fill="black"/>
<path d="M107.372 115.908C107.481 115.908 107.569 115.922 107.638 115.951C107.707 115.981 107.76 116.018 107.8 116.063C107.839 116.109 107.866 116.162 107.879 116.223C107.893 116.285 107.9 116.346 107.9 116.407V116.877H107.776C107.776 116.626 107.709 116.445 107.574 116.33C107.438 116.215 107.247 116.159 106.998 116.159H105.84V117.784H107.518V118.035H105.84V119.786H106.929C107.21 119.786 107.433 119.733 107.598 119.631C107.762 119.527 107.89 119.351 107.985 119.1L108.11 119.132L107.893 119.725C107.858 119.821 107.805 119.895 107.728 119.951C107.651 120.007 107.55 120.037 107.425 120.037H105.279V116.664C105.279 116.477 105.253 116.325 105.202 116.21C105.149 116.095 105.032 116.039 104.844 116.039H104.719V115.914H107.372V115.908Z" fill="black"/>
<path d="M109.635 119.781H111.841V120.031H109.074V116.658C109.074 116.472 109.048 116.319 108.997 116.205C108.944 116.09 108.827 116.034 108.639 116.034H108.514V115.908H109.074C109.183 115.908 109.273 115.919 109.345 115.938C109.417 115.956 109.475 115.994 109.52 116.05C109.563 116.106 109.595 116.183 109.611 116.282C109.627 116.381 109.635 116.506 109.635 116.661V119.781Z" fill="black"/>
<path d="M115.536 119.282C115.536 119.468 115.562 119.62 115.613 119.735C115.666 119.85 115.783 119.906 115.971 119.906H116.096V120.031H115.536C115.427 120.031 115.336 120.023 115.265 120.002C115.193 119.983 115.135 119.946 115.089 119.89C115.047 119.834 115.015 119.759 114.999 119.663C114.983 119.567 114.975 119.442 114.975 119.282V118.033H113.111V120.031H112.551V116.658C112.551 116.472 112.524 116.319 112.474 116.205C112.42 116.09 112.304 116.034 112.115 116.034H111.99V115.908H112.551C112.659 115.908 112.75 115.919 112.821 115.938C112.893 115.956 112.952 115.994 112.997 116.05C113.039 116.106 113.071 116.183 113.087 116.282C113.103 116.381 113.111 116.506 113.111 116.661V117.784H114.975V115.911H115.536V119.282Z" fill="black"/>
<path d="M116.879 115.908H117.44V119.282C117.44 119.468 117.466 119.62 117.517 119.735C117.567 119.85 117.687 119.906 117.875 119.906H118V120.031H117.44C117.331 120.031 117.241 120.023 117.169 120.002C117.097 119.983 117.039 119.946 116.994 119.89C116.951 119.834 116.919 119.759 116.903 119.663C116.887 119.567 116.879 119.442 116.879 119.282V115.908Z" fill="black"/>
</g>
<defs>
<clipPath id="clip0_226_85">
<rect width="118" height="121" fill="white"/>
</clipPath>
</defs>
</svg>
